<svg xmlns="http://www.w3.org/2000/svg" xmlns:xlink="http://www.w3.org/1999/xlink" width="1647.165" height="8298.77" viewBox="0 0 1647.165 8298.77"><defs><style>.a,.c,.d,.e,.f,.h,.i,.j,.k,.l,.m{fill:none;}.b{clip-path:url(#a);}.c{stroke:#d8d8d8;}.d{stroke:#f2d4ab;}.e{stroke:#8cb585;}.f{stroke:#d2d2d3;}.g{clip-path:url(#e);}.h{stroke:#68686e;}.i{stroke:#336e9f;}.j{stroke:#030c4b;}.k{stroke:#e38859;}.l{stroke:#b4a362;}.m{stroke:#414141;}</style><clipPath id="a"><rect class="a" width="1155.172" height="1670.136"/></clipPath><clipPath id="e"><rect class="a" width="1280" height="800" transform="translate(0 1822)"/></clipPath></defs><g transform="translate(0 -1788.501)"><g class="b" transform="translate(491.993 1788.501)"><path class="c" d="M-2356.184,5607.887c13.772,16.284,25.322,26.42,34.106,33.26,304.873,225.867,209.192,400.681,193.858,514.634-15.412,114.525-74.572,307.517,168.554,427.359s96.238,406.6,264.324,532.183" transform="matrix(0.921, 0.391, -0.391, 0.921, 4927.841, -4212.698)"/></g><g transform="translate(0 800)"><g class="b" transform="translate(491.993 988.501)"><path class="d" d="M-2356.184,5607.887c13.772,16.284,25.322,26.42,34.106,33.26,304.873,225.867,209.192,400.681,193.858,514.634-15.412,114.525-74.572,307.517,168.554,427.359s96.238,406.6,264.324,532.183" transform="matrix(0.921, 0.391, -0.391, 0.921, 4927.841, -4212.698)"/></g></g><g transform="translate(0 1600)"><g class="b" transform="translate(491.993 1788.501)"><path class="e" d="M-2355.83,5608.544a215.4,215.4,0,0,0,33.752,32.6c304.873,225.867,209.192,400.681,193.858,514.634-15.412,114.525-74.572,307.517,168.554,427.359s96.238,406.6,264.324,532.183" transform="matrix(0.921, 0.391, -0.391, 0.921, 4927.841, -4212.698)"/></g></g><g transform="translate(0 2400)"><g class="b" transform="translate(491.993 988.501)"><path class="f" d="M-2356.184,5607.887c13.772,16.284,25.322,26.42,34.106,33.26,304.873,225.867,209.192,400.681,193.858,514.634-15.412,114.525-74.572,307.517,168.554,427.359s96.238,406.6,264.324,532.183" transform="matrix(0.921, 0.391, -0.391, 0.921, 4927.841, -4212.698)"/></g></g><g class="g" transform="translate(0 3200)"><g class="b" transform="translate(491.993 1788.501)"><path class="h" d="M-2356.41,5608.087a221.323,221.323,0,0,0,34.333,33.06c304.873,225.867,209.192,400.681,193.858,514.634-15.412,114.525-74.572,307.517,168.554,427.359s96.238,406.6,264.324,532.183" transform="matrix(0.921, 0.391, -0.391, 0.921, 4927.841, -4212.698)"/></g></g><g class="g" transform="translate(0 4000)"><g class="b" transform="translate(491.993 988.501)"><path class="i" d="M-2356.184,5607.887c13.772,16.284,25.322,26.42,34.106,33.26,304.873,225.867,209.192,400.681,193.858,514.634-15.412,114.525-74.572,307.517,168.554,427.359s96.238,406.6,264.324,532.183" transform="matrix(0.921, 0.391, -0.391, 0.921, 4927.841, -4212.698)"/></g></g><g transform="translate(0 4800)"><g class="b" transform="translate(491.993 1788.501)"><path class="j" d="M-2356.253,5608.263a218.859,218.859,0,0,0,34.176,32.884c304.873,225.867,209.192,400.681,193.858,514.634-15.412,114.525-74.572,307.517,168.554,427.359s96.238,406.6,264.324,532.183" transform="matrix(0.921, 0.391, -0.391, 0.921, 4927.841, -4212.698)"/></g></g><g class="g" transform="translate(0 5600)"><g class="b" transform="translate(491.993 988.501)"><path class="k" d="M-2356.184,5607.887c13.772,16.284,25.322,26.42,34.106,33.26,304.873,225.867,209.192,400.681,193.858,514.634-15.412,114.525-74.572,307.517,168.554,427.359s96.238,406.6,264.324,532.183" transform="matrix(0.921, 0.391, -0.391, 0.921, 4927.841, -4212.698)"/></g></g><g class="g" transform="translate(0 6400)"><g class="b" transform="translate(491.993 1788.501)"><path class="l" d="M-2356.4,5608.1a221.112,221.112,0,0,0,34.327,33.046c304.873,225.867,209.192,400.681,193.858,514.634-15.412,114.525-74.572,307.517,168.554,427.359s96.238,406.6,264.324,532.183" transform="matrix(0.921, 0.391, -0.391, 0.921, 4927.841, -4212.698)"/></g></g><g class="g" transform="translate(0 7200)"><g class="b" transform="translate(491.993 988.501)"><path class="m" d="M-2356.184,5607.887c13.772,16.284,25.322,26.42,34.106,33.26,304.873,225.867,209.192,400.681,193.858,514.634-15.412,114.525-74.572,307.517,168.554,427.359s185.212,365.342,353.3,490.922" transform="matrix(0.921, 0.391, -0.391, 0.921, 4927.841, -4212.698)"/></g></g><path class="m" d="M1060.938,9821.716c13.854,42.779,85.949,168.932,253.814,265.121" transform="translate(98)"/></g></svg>