<svg xmlns="http://www.w3.org/2000/svg" width="161.697" height="11.76" viewBox="0 0 161.697 11.76"><defs><style>.a{fill-rule:evenodd;}</style></defs><path class="a" d="M4.263,5.13a3.015,3.015,0,0,1-.808.073H1.837V2.19H3.454a3.015,3.015,0,0,1,.808.073,1.185,1.185,0,0,1,.661.22,1.248,1.248,0,0,1,.441.441,1.844,1.844,0,0,1,.147.735,2.642,2.642,0,0,1-.147.808,1.248,1.248,0,0,1-.441.441A1.185,1.185,0,0,1,4.263,5.13ZM1.837,6.894H3.087l2.646,4.7h2.2L4.924,6.674a2.633,2.633,0,0,0,.808-.294,7.785,7.785,0,0,0,.882-.735,2.42,2.42,0,0,0,.514-.955A1.641,1.641,0,0,0,7.35,3.66a5.673,5.673,0,0,0-.147-1.1,2.1,2.1,0,0,0-.588-1.029,2.908,2.908,0,0,0-1.1-.735A3.487,3.487,0,0,0,3.822.5H0V11.672H1.837Z" transform="translate(0 -0.133)"/><rect width="1.837" height="11.172" transform="translate(9.628 0.367)"/><path class="a" d="M20.964,9.834V2.264h1.911a3.967,3.967,0,0,1,1.984.441,3.925,3.925,0,0,1,1.176.955,2.8,2.8,0,0,1,.588,1.249,7.329,7.329,0,0,1,.147,1.176,4.085,4.085,0,0,1-.294,1.69,3.538,3.538,0,0,1-.882,1.176,3.854,3.854,0,0,1-1.323.735,5.732,5.732,0,0,1-1.617.22h-1.69ZM25.3,11.157a5.428,5.428,0,0,0,1.837-1.249,4.469,4.469,0,0,0,1.1-1.764,5.086,5.086,0,0,0,.367-2.058,5.563,5.563,0,0,0-.073-1.1,8.03,8.03,0,0,0-.367-1.249,4.753,4.753,0,0,0-.661-1.176,6.81,6.81,0,0,0-1.029-1.029,9.147,9.147,0,0,0-1.47-.735A8.05,8.05,0,0,0,23.022.5H19.2V11.672h3.528A8.869,8.869,0,0,0,25.3,11.157Z" transform="translate(-5.088 -0.133)"/><path class="a" d="M85.464,9.834V2.264h1.911a3.967,3.967,0,0,1,1.984.441,3.925,3.925,0,0,1,1.176.955,3.9,3.9,0,0,1,.588,1.249,7.329,7.329,0,0,1,.147,1.176,4.083,4.083,0,0,1-.367,1.69,3.538,3.538,0,0,1-.882,1.176,3.854,3.854,0,0,1-1.323.735,5.732,5.732,0,0,1-1.617.22H85.464ZM89.8,11.157a5.428,5.428,0,0,0,1.837-1.249,4.469,4.469,0,0,0,1.1-1.764,6.376,6.376,0,0,0,.367-2.058,5.563,5.563,0,0,0-.074-1.1,8.03,8.03,0,0,0-.367-1.249,4.753,4.753,0,0,0-.661-1.176,6.811,6.811,0,0,0-1.029-1.029,9.146,9.146,0,0,0-1.47-.735A8.049,8.049,0,0,0,87.522.5H83.7V11.672h3.6A8.873,8.873,0,0,0,89.8,11.157Z" transform="translate(-22.182 -0.133)"/><path class="a" d="M146.564,9.834V2.264h1.911a3.967,3.967,0,0,1,1.984.441,3.925,3.925,0,0,1,1.176.955,3.9,3.9,0,0,1,.588,1.249,7.33,7.33,0,0,1,.147,1.176,5.788,5.788,0,0,1-.294,1.69,3.538,3.538,0,0,1-.882,1.176,3.854,3.854,0,0,1-1.323.735,5.732,5.732,0,0,1-1.617.22h-1.69Zm4.336,1.323a5.428,5.428,0,0,0,1.837-1.249,4.469,4.469,0,0,0,1.1-1.764,6.377,6.377,0,0,0,.367-2.058,5.562,5.562,0,0,0-.074-1.1,8.029,8.029,0,0,0-.367-1.249,4.753,4.753,0,0,0-.661-1.176,6.811,6.811,0,0,0-1.029-1.029,9.146,9.146,0,0,0-1.47-.735A8.049,8.049,0,0,0,148.622.5H144.8V11.672h3.6A8.873,8.873,0,0,0,150.9,11.157Z" transform="translate(-38.374 -0.133)"/><path d="M41.95,9.834H36.364V6.821h4.924V5.057H36.364V2.264h5.292V.5H34.6V11.6h7.35Z" transform="translate(-9.17 -0.133)"/><path d="M58.065,8.364,54.978.5H52.7V11.6h1.69V3.587L57.477,11.6h1.176l3.013-8.011V11.6h1.764V.5H61.079Z" transform="translate(-13.966 -0.133)"/><path d="M77.756,2.264V.5H70.7V11.6h7.35V9.834H72.464V6.821h4.924V5.057H72.464V2.264Z" transform="translate(-18.737 -0.133)"/><path d="M167.329,2.264V.5H160.2V11.6h7.423V9.834h-5.586V6.821h4.924V5.057h-4.924V2.264Z" transform="translate(-42.455 -0.133)"/><rect width="1.837" height="11.172" transform="translate(72.984 0.367)"/><rect width="1.837" height="11.172" transform="translate(136.34 0.367)"/><path class="a" d="M107.822,7.235l1.69-4.263,1.69,4.263Zm-1.69,4.336,1.029-2.646h4.7l1.029,2.646h2.058L110.321.4h-1.543L104,11.572Z" transform="translate(-27.562 -0.106)"/><path class="a" d="M128.34,3.795l-.22-.441a.932.932,0,0,1-.074-.441,1,1,0,0,1,.294-.808.944.944,0,0,1,.735-.294.9.9,0,0,1,.661.22.976.976,0,0,1,.22.735c0,.22-.074.367-.074.588-.074.147-.22.294-.294.441a1.08,1.08,0,0,1-.441.367l-.367.294-.22-.22Zm-.294,3.013.367-.294,1.911,2.425-.294.367-.441.441a1.185,1.185,0,0,1-.514.294,1.256,1.256,0,0,1-1.029,0,2.233,2.233,0,0,1-.514-.367,3.111,3.111,0,0,1-.367-.514,2.146,2.146,0,0,1-.147-.661,1.092,1.092,0,0,1,.147-.661,3.2,3.2,0,0,1,.294-.514A4.8,4.8,0,0,0,128.046,6.808Zm4.189-1.4L131.206,7.47l-1.47-1.837c.147-.147.367-.22.514-.367a2.536,2.536,0,0,0,.588-.661,1.752,1.752,0,0,0,.441-.808,2.336,2.336,0,0,0,.147-1.029,2.455,2.455,0,0,0-.22-1.1,3.035,3.035,0,0,0-.514-.808,3.035,3.035,0,0,0-.808-.514,2.843,2.843,0,0,0-1.911,0,3.035,3.035,0,0,0-.808.514,2.643,2.643,0,0,0-.588.882,3.047,3.047,0,0,0-.22,1.176,4.349,4.349,0,0,0,.294,1.47,4.167,4.167,0,0,0,.588.955,4.077,4.077,0,0,0-.588.441,3.16,3.16,0,0,0-.661.735,2.484,2.484,0,0,0-.441.882,2.679,2.679,0,0,0-.147,1.1,3.047,3.047,0,0,0,.22,1.176,2.884,2.884,0,0,0,.588,1.029,2.388,2.388,0,0,0,.955.735,3.306,3.306,0,0,0,3.013-.147,7.8,7.8,0,0,0,1.1-1.1l1.029,1.323h2.058l-2.2-2.719,1.764-3.381Z" transform="translate(-33.233 -0.046)"/><path d="M177.524,9.555a2.2,2.2,0,0,1-.588.294A2.28,2.28,0,0,1,175.1,9.7a1.87,1.87,0,0,1-.882-.808l-.147-.22L172.6,10l.074.147a3.122,3.122,0,0,0,1.543,1.176,5.612,5.612,0,0,0,1.984.367,4.739,4.739,0,0,0,1.47-.22,4.086,4.086,0,0,0,1.249-.661,3.07,3.07,0,0,0,.808-1.1,3.291,3.291,0,0,0,.294-1.47,3.045,3.045,0,0,0-.441-1.69,3.2,3.2,0,0,0-1.029-.955,3.559,3.559,0,0,0-1.323-.514,11.464,11.464,0,0,1-1.176-.367,4.666,4.666,0,0,1-.882-.514,1.172,1.172,0,0,1-.294-.882.932.932,0,0,1,.074-.441,1.538,1.538,0,0,1,.294-.441,1.16,1.16,0,0,1,.588-.367,2.741,2.741,0,0,1,.882-.147,2.348,2.348,0,0,1,1.029.22,1.735,1.735,0,0,1,.661.588l.147.22,1.47-1.4-.147-.147a2.853,2.853,0,0,0-1.47-1.029A3.35,3.35,0,0,0,176.716,0a4.085,4.085,0,0,0-1.69.294,4.738,4.738,0,0,0-1.176.808,3.083,3.083,0,0,0-.661,1.029,2.949,2.949,0,0,0-.221,1.1A3.135,3.135,0,0,0,173.408,5a2.763,2.763,0,0,0,1.029,1.029,3.632,3.632,0,0,0,1.323.588c.441.147.808.294,1.249.441a2.541,2.541,0,0,1,.882.514.916.916,0,0,1,.294.808,1.756,1.756,0,0,1-.147.661A1.717,1.717,0,0,1,177.524,9.555Z" transform="translate(-45.742)"/><path d="M196.506,6.835h2.278V9.481a3.692,3.692,0,0,1-.955.367,8.141,8.141,0,0,1-1.4.147,3.838,3.838,0,0,1-1.543-.294,4.829,4.829,0,0,1-1.249-.882,4,4,0,0,1-.808-1.323,3.955,3.955,0,0,1-.294-1.617,3.955,3.955,0,0,1,.294-1.617,5.642,5.642,0,0,1,.735-1.323,3.538,3.538,0,0,1,1.176-.882,3.409,3.409,0,0,1,1.543-.294,4.739,4.739,0,0,1,1.47.22,3.471,3.471,0,0,1,1.323.882l.147.147,1.249-1.4L200.4,1.47a5.235,5.235,0,0,0-1.617-1.1A6.022,6.022,0,0,0,196.359,0a5.726,5.726,0,0,0-2.278.441,5.123,5.123,0,0,0-1.764,1.249,5.263,5.263,0,0,0-1.176,1.837A6.094,6.094,0,0,0,190.7,5.88a7.782,7.782,0,0,0,.367,2.278A6.426,6.426,0,0,0,192.17,10a6.927,6.927,0,0,0,1.837,1.323,6.474,6.474,0,0,0,2.425.441,5.207,5.207,0,0,0,1.029-.073,5.859,5.859,0,0,0,1.1-.22c.367-.073.661-.22,1.029-.294a4.895,4.895,0,0,0,.882-.441l.073-.073V5h-4.116V6.835Z" transform="translate(-50.538)"/><path d="M214.77,8.852,209.331.4H207.2V11.572h1.764V3.193l5.586,8.379h2.058V.4H214.77Z" transform="translate(-54.911 -0.106)"/></svg>